:SAMPLES-PER-SECOND 30
:FULLY-SPECIFIED
:DEGREES
922
root  2.69446 34.3141 -20.0408 -5.52901 89.095 -13.6616
LeftUpLeg  -8.79932 9.19718 -1.47169
LeftLeg  9.19785 3.82585 0.368132
LeftFoot  -0.549298 0.00123143 -0.0393043
LeftToes  -12.7048 7.65994e-007 1.12379e-007
Spine  2.26447 -0.746544 0.345759
Spine1  4.51453 -1.53481 0.693089
RightShoulder  -0.00168716 2.85521 -2.24725
RightArm  15.3382 -21.7699 75.159
RightForeArm  55.8704 78.902 65.1006
RightHand  -1.03667 -6.96771 17.259
LeftShoulder1  0.00412424 2.10279 -1.73578
LeftArm  7.49939 -14.5332 -76.0201
LeftForeArm  138.249 -61.0155 -161.059
LeftHand  0.533823 9.1737 6.27183
HEad  -18.5902 -4.55938 4.47626
RightUpLeg  -13.2525 -3.61135 -2.48688
RightLeg  9.25517 7.87091 0.767795
RightFoot  4.8605 -0.0145182 0.659261
RightToes  -29.5171 -0.144159 -0.252181
923
root  2.77983 34.31 -20.0321 -10.1687 89.2721 -18.2692
LeftUpLeg  -8.63061 9.04043 -1.40259
LeftLeg  9.20817 3.79845 0.36618
LeftFoot  -0.666634 0.00131228 -0.0453445
LeftToes  -12.7744 7.65994e-007 1.12379e-007
Spine  2.16181 -0.698267 0.353511
Spine1  4.32052 -1.42097 0.693546
RightShoulder  -0.00179806 2.65334 -2.07737
RightArm  15.4494 -21.8405 74.9848
RightForeArm  55.5533 78.8839 64.8924
RightHand  -1.04695 -7.03305 17.2676
LeftShoulder1  0.00287963 2.0725 -2.16402
LeftArm  8.43185 -11.8432 -75.2583
LeftForeArm  136.73 -63.8635 -158.538
LeftHand  0.480453 9.28166 5.53943
HEad  -18.9269 -5.02596 5.2506
RightUpLeg  -13.1041 -3.54191 -2.48
RightLeg  9.39056 7.62165 0.761759
RightFoot  4.6156 -0.0110411 0.60736
RightToes  -29.4998 -0.143902 -0.251916
924
root  2.85907 34.3088 -20.0196 -17.784 89.4193 -25.8632
LeftUpLeg  -8.47197 8.93668 -1.32022
LeftLeg  9.19034 3.74383 0.359735
LeftFoot  -0.739172 0.00121402 -0.0491133
LeftToes  -12.9475 7.65994e-007 1.12379e-007
Spine  2.06445 -0.670102 0.36171
Spine1  4.12818 -1.36032 0.70775
RightShoulder  -0.00190116 2.51767 -1.94019
RightArm  15.5927 -21.8761 74.8305
RightForeArm  55.036 78.8558 64.5723
RightHand  -1.06324 -7.07428 17.428
LeftShoulder1  0.00190412 1.81617 -2.62013
LeftArm  9.10955 -9.05048 -74.1904
LeftForeArm  135.087 -66.8905 -155.157
LeftHand  0.394014 8.99265 4.63386
HEad  -19.0626 -5.49965 5.88056
RightUpLeg  -12.9406 -3.44012 -2.45113
RightLeg  9.43414 7.34518 0.739919
RightFoot  4.46636 -0.00831801 0.566224
RightToes  -29.5839 -0.143625 -0.251632
925
root  2.93111 34.3086 -20.0058 -28.9409 89.5398 -37.0257
LeftUpLeg  -8.32765 8.85779 -1.24656
LeftLeg  9.12713 3.67295 0.348834
LeftFoot  -0.825638 0.000984101 -0.0514645
LeftToes  -12.8899 7.65994e-007 1.12379e-007
Spine  1.98516 -0.644527 0.367632
Spine1  3.97355 -1.30352 0.715604
RightShoulder  -0.00199076 2.3973 -1.81202
RightArm  15.824 -21.8564 74.6459
RightForeArm  55.1131 78.8576 64.5937
RightHand  -1.04434 -6.97752 17.3584
LeftShoulder1  0.0011979 1.75319 -2.96357
LeftArm  9.83919 -6.59021 -73.4671
LeftForeArm  131.301 -70.2774 -150.046
LeftHand  0.368327 8.98678 4.3111
HEad  -19.2731 -5.98987 6.53439
RightUpLeg  -12.7805 -3.3339 -2.41966
RightLeg  9.40861 7.09455 0.711633
RightFoot  4.28012 -0.00558469 0.52406
RightToes  -29.3243 -0.143332 -0.251331
926
root  2.99631 34.3089 -19.9894 -45.4334 89.6402 -53.5344
LeftUpLeg  -8.18327 8.72284 -1.18258
LeftLeg  9.01101 3.66137 0.340265
LeftFoot  -0.856512 0.000662872 -0.0531417
LeftToes  -12.9443 7.65994e-007 1.12379e-007
Spine  1.90841 -0.600369 0.381435
Spine1  3.82247 -1.21228 0.742313
RightShoulder  -0.00206915 2.32857 -1.72517
RightArm  15.9743 -21.9041 74.4434
RightForeArm  55.2392 78.8802 64.8463
RightHand  -1.04694 -7.00682 17.3299
LeftShoulder1  0.000761196 1.65668 -3.17558
LeftArm  10.633 -4.41916 -73.0074
LeftForeArm  124.199 -73.8657 -141.851
LeftHand  0.365391 9.11453 4.2086
HEad  -19.391 -6.54742 7.13034
RightUpLeg  -12.64 -3.38506 -2.38379
RightLeg  9.36818 7.00309 0.697535
RightFoot  4.15003 -0.00417498 0.501637
RightToes  -29.3328 -0.143024 -0.251015
927
root  3.05989 34.309 -19.9772 -71.4283 89.6899 -79.5659
LeftUpLeg  -8.05573 8.63535 -1.12676
LeftLeg  8.86839 3.60804 0.326266
LeftFoot  -0.833702 0.000272356 -0.0546037
LeftToes  -13.0132 7.65994e-007 1.12379e-007
Spine  1.81098 -0.581543 0.392631
Spine1  3.62565 -1.17734 0.769491
RightShoulder  -0.00213509 2.28115 -1.6543
RightArm  16.1479 -21.9347 74.3031
RightForeArm  54.8507 78.8534 64.5441
RightHand  -1.0528 -7.03219 17.3627
LeftShoulder1  0.000594205 1.33162 -3.48784
LeftArm  11.1095 -2.22766 -72.2927
LeftForeArm  113.293 -77.0198 -129.279
LeftHand  0.301118 9.15769 3.38608
HEad  -19.2724 -6.97529 7.42453
RightUpLeg  -12.516 -3.57158 -2.33907
RightLeg  9.30913 7.03604 0.693496
RightFoot  4.08629 -0.00389391 0.495993
RightToes  -29.454 -0.142704 -0.250686
928
root  3.12088 34.3083 -19.9683 -91.5507 89.6768 -99.7368
LeftUpLeg  -7.962 8.54861 -1.08215
LeftLeg  8.77686 3.58627 0.318532
LeftFoot  -0.848441 -0.000165421 -0.0563094
LeftToes  -13.0652 7.65994e-007 1.12379e-007
Spine  1.71357 -0.587155 0.400619
Spine1  3.42915 -1.19156 0.78994
RightShoulder  -0.00217505 2.16863 -1.61244
RightArm  16.4255 -21.8182 74.2317
RightForeArm  54.3502 78.8088 64.0518
RightHand  -1.05781 -7.03359 17.439
LeftShoulder1  0.000697141 1.10159 -3.81704
LeftArm  11.5438 -0.131386 -71.6109
LeftForeArm  95.4326 -79.3264 -109.02
LeftHand  0.250328 8.72001 2.91012
HEad  -19.0445 -7.25069 7.52897
RightUpLeg  -12.3917 -3.59571 -2.31049
RightLeg  9.20285 6.95385 0.672457
RightFoot  4.01014 -0.003021 0.48049
RightToes  -29.3914 -0.142375 -0.250348
929
root  3.17961 34.3056 -19.9624 -101.832 89.6568 -110.059
LeftUpLeg  -7.88457 8.51638 -1.05408
LeftLeg  8.73855 3.56266 0.314037
LeftFoot  -0.931455 -0.000628434 -0.0587176
LeftToes  -13.0411 7.65994e-007 1.12379e-007
Spine  1.6418 -0.574756 0.415317
Spine1  3.2864 -1.16754 0.821324
RightShoulder  -0.0022098 2.0801 -1.53776
RightArm  16.5699 -21.7819 74.1206
RightForeArm  54.4583 78.8162 64.1333
RightHand  -1.07459 -7.13712 17.4575
LeftShoulder1  0.00107021 1.09361 -4.07755
LeftArm  12.1183 1.56954 -71.2905
LeftForeArm  68.0712 -79.7422 -79.4716
LeftHand  0.239029 8.43458 2.8684
HEad  -19.0212 -7.5389 7.68062
RightUpLeg  -12.289 -3.53921 -2.30282
RightLeg  9.14464 6.82563 0.653146
RightFoot  3.88545 -0.00164288 0.456539
RightToes  -29.2473 -0.142038 -0.250003
930
root  3.24083 34.3038 -19.9575 -105.894 89.6437 -114.166
LeftUpLeg  -7.80772 8.50753 -1.03099
LeftLeg  8.70577 3.53945 0.309952
LeftFoot  -0.992762 -0.00107365 -0.0626136
LeftToes  -13.1319 7.65994e-007 1.12379e-007
Spine  1.57028 -0.541926 0.436218
Spine1  3.13807 -1.1089 0.872085
RightShoulder  -0.00224288 2.04518 -1.43107
RightArm  16.6593 -21.9008 73.9105
RightForeArm  54.5376 78.8433 64.4286
RightHand  -1.0784 -7.083 17.6465
LeftShoulder1  0.00171363 0.928406 -4.38834
LeftArm  12.5229 3.14755 -70.9465
LeftForeArm  43.2887 -77.4775 -53.1174
LeftHand  0.18732 8.62079 2.11323
HEad  -18.9015 -7.87019 7.76171
RightUpLeg  -12.1898 -3.45695 -2.29818
RightLeg  9.07073 6.7199 0.63436
RightFoot  3.81396 -0.000804443 0.440423
RightToes  -29.3719 -0.141697 -0.249654
931
root  3.30095 34.2993 -19.9569 -108.312 89.6406 -116.62
LeftUpLeg  -7.77105 8.46103 -1.02293
LeftLeg  8.78004 3.56879 0.317177
LeftFoot  -1.09996 -0.00134569 -0.0705288
LeftToes  -13.093 7.65994e-007 1.12379e-007
Spine  1.49096 -0.540039 0.445405
Spine1  2.97029 -1.11639 0.903732
RightShoulder  -0.00226577 2.00964 -1.30059
RightArm  16.754 -21.9534 73.7646
RightForeArm  54.2987 78.8303 64.2838
RightHand  -1.0704 -7.06191 17.5709
LeftShoulder1  0.00262759 0.721397 -4.83515
LeftArm  12.7305 4.7425 -70.5129
LeftForeArm  28.9556 -73.4593 -36.6837
LeftHand  0.169702 8.59179 1.88736
HEad  -18.6016 -8.00708 7.67868
RightUpLeg  -12.1484 -3.4915 -2.30205
RightLeg  9.1463 6.74956 0.646103
RightFoot  3.64066 0.000179126 0.421579
RightToes  -29.2346 -0.141354 -0.249302
932
root  3.3626 34.2931 -19.9556 -103.983 89.6431 -112.312
LeftUpLeg  -7.71471 8.36462 -0.999968
LeftLeg  8.85811 3.69097 0.333112
LeftFoot  -1.2253 -0.00149922 -0.08173
LeftToes  -13.109 7.65994e-007 1.12379e-007
Spine  1.40524 -0.568481 0.463946
Spine1  2.7863 -1.18745 0.957147
RightShoulder  -0.00227998 1.97934 -1.13534
RightArm  16.9617 -21.9143 73.5793
RightForeArm  54.3701 78.838 64.3683
RightHand  -1.08678 -7.13551 17.6524
LeftShoulder1  0.00502723 0.45912 -5.44539
LeftArm  12.6985 6.42412 -69.9291
LeftForeArm  21.851 -68.5514 -26.8113
LeftHand  0.141133 8.20499 1.59622
HEad  -18.2666 -8.05553 7.52086
RightUpLeg  -12.1194 -3.44653 -2.30053
RightLeg  9.26669 6.72936 0.658415
RightFoot  3.47369 0.00129434 0.400282
RightToes  -29.1982 -0.141012 -0.24895
